<svg xmlns="http://www.w3.org/2000/svg" viewBox="0 0 980 980" style="enable-background:new 0 0 980 980;">
    <g>
        <path fill="#ababab" d="M980,770v70c0,9.5-3.5,17.7-10.4,24.6c-6.9,6.9-15.1,10.4-24.6,10.4H35c-9.5,0-17.7-3.5-24.6-10.4C3.5,857.7,0,849.5,0,840
            v-70c0-9.5,3.5-17.7,10.4-24.6S25.5,735,35,735h910c9.5,0,17.7,3.5,24.6,10.4S980,760.5,980,770z M770,560v70
            c0,9.5-3.5,17.7-10.4,24.6c-6.9,6.9-15.1,10.4-24.6,10.4H35c-9.5,0-17.7-3.5-24.6-10.4S0,639.5,0,630v-70c0-9.5,3.5-17.7,10.4-24.6
            C17.3,528.5,25.5,525,35,525h700c9.5,0,17.7,3.5,24.6,10.4C766.5,542.3,770,550.5,770,560z M910,350v70c0,9.5-3.5,17.7-10.4,24.6
            S884.5,455,875,455H35c-9.5,0-17.7-3.5-24.6-10.4S0,429.5,0,420v-70c0-9.5,3.5-17.7,10.4-24.6S25.5,315,35,315h840
            c9.5,0,17.7,3.5,24.6,10.4C906.5,332.3,910,340.5,910,350z M700,140v70c0,9.5-3.5,17.7-10.4,24.6c-6.9,6.9-15.1,10.4-24.6,10.4H35
            c-9.5,0-17.7-3.5-24.6-10.4C3.5,227.7,0,219.5,0,210v-70c0-9.5,3.5-17.7,10.4-24.6S25.5,105,35,105h630c9.5,0,17.7,3.5,24.6,10.4
            C696.5,122.3,700,130.5,700,140L700,140z"/>
    </g>
</svg>
